# File created by Blade
# Date/Time:  Wed Jan 21 17:47:32 2015
# Frame Rate: 120.000 fps
#------------------------------------------------------
:FULLY-SPECIFIED
:DEGREES
653
root 12.813527 31.927229 -19.404388 -148.797660 42.696551 -216.837995
Spine 44.071401 14.925408 57.167736
Head -13.565428 18.351718 -31.956237
LeftShoulder -20.979748 -18.123314 15.438868
LeftArm -50.131268 3.993725 -18.524211
LeftForeArm -31.933698 -0.000000 -1.432268
LeftHand -13.271086 0.000000 11.966552
LeftHandThumb1 -26.253704 0.000000 33.147579
RightShoulder 4.460283 8.281302 -37.752749
RightArm 1.114117 32.935151 -1.281937
RightForeArm -34.345733 -0.000000 8.193544
RightHand -5.356558 -0.000000 -4.865885
RightHandThumb1 -24.326973 -0.000000 -32.862282
LeftUpLeg -32.762996 -9.468541 -14.044280
LeftLeg -8.463316 -0.000000 0.000000
LeftFoot -26.622464 14.449472 -24.711480
LeftToeBase 23.379476 -0.000000 -0.000000
RightUpLeg -94.808232 -35.836434 6.486643
RightLeg -4.401083 -0.000000 0.000000
RightFoot 18.815156 -33.965262 -5.623200
RightToeBase 25.992396 -0.000000 -0.000000
654
root 12.816143 31.924992 -19.407451 -148.831206 42.769678 -216.799400
Spine 44.044170 14.961684 57.004245
Head -13.587160 17.743753 -31.643680
LeftShoulder -20.914575 -18.292901 15.407202
LeftArm -49.944980 4.013814 -18.255738
LeftForeArm -31.930883 -0.000000 -1.380972
LeftHand -13.104536 0.000000 12.141564
LeftHandThumb1 -26.253704 0.000000 33.147579
RightShoulder 4.584739 8.371102 -37.697510
RightArm 1.055484 32.858339 -1.214818
RightForeArm -34.176340 -0.000000 8.296357
RightHand -5.303001 -0.000000 -4.346703
RightHandThumb1 -24.326973 -0.000000 -32.862282
LeftUpLeg -32.670130 -9.400867 -14.052219
LeftLeg -8.541214 -0.000000 0.000000
LeftFoot -26.632850 14.500842 -24.683492
LeftToeBase 23.401801 -0.000000 -0.000000
RightUpLeg -94.612865 -35.769384 6.319481
RightLeg -4.488185 -0.000000 0.000000
RightFoot 18.886889 -34.008451 -5.668796
RightToeBase 26.002125 -0.000000 -0.000000
655
root 12.821372 31.922331 -19.409542 -148.849241 42.815940 -216.722957
Spine 44.002427 14.969472 56.868527
Head -13.609610 17.088503 -31.347018
LeftShoulder -20.821629 -18.392697 15.284590
LeftArm -49.736243 3.949888 -17.933046
LeftForeArm -31.972326 -0.000000 -1.285829
LeftHand -12.828239 0.000000 12.498914
LeftHandThumb1 -26.253704 0.000000 33.147579
RightShoulder 4.654260 8.353675 -37.664480
RightArm 1.147109 32.827715 -1.087348
RightForeArm -33.931587 0.000000 8.286279
RightHand -5.253352 0.000000 -3.737722
RightHandThumb1 -24.326973 -0.000000 -32.862282
LeftUpLeg -32.583413 -9.394879 -13.974717
LeftLeg -8.604034 -0.000000 0.000000
LeftFoot -26.657068 14.634254 -24.643154
LeftToeBase 23.340880 -0.000000 -0.000000
RightUpLeg -94.391269 -35.710984 6.198538
RightLeg -4.612319 -0.000000 0.000000
RightFoot 18.949188 -34.051188 -5.689272
RightToeBase 25.866948 -0.000000 -0.000000
656
root 12.824965 31.919513 -19.412866 -148.878031 42.871738 -216.660893
Spine 43.963786 15.025919 56.699521
Head -13.673519 16.343053 -30.994405
LeftShoulder -20.712167 -18.657123 15.252051
LeftArm -49.586843 4.019448 -17.602069
LeftForeArm -32.077563 -0.000000 -1.153635
LeftHand -12.756033 -0.000000 12.824973
LeftHandThumb1 -26.253704 0.000000 33.147579
RightShoulder 4.677112 8.318852 -37.526674
RightArm 1.261864 32.889371 -1.041950
RightForeArm -33.633879 -0.000000 8.267438
RightHand -5.046444 -0.000000 -3.196162
RightHandThumb1 -24.326973 -0.000000 -32.862282
LeftUpLeg -32.498547 -9.367687 -13.926877
LeftLeg -8.650441 -0.000000 0.000000
LeftFoot -26.698343 14.717953 -24.594092
LeftToeBase 23.362811 -0.000000 -0.000000
RightUpLeg -94.168463 -35.655955 6.051298
RightLeg -4.724800 -0.000000 0.000000
RightFoot 19.006088 -34.092112 -5.710056
RightToeBase 25.961801 -0.000000 -0.000000
657
root 12.831332 31.918384 -19.417967 -148.923781 42.916199 -216.582463
Spine 43.977364 14.987885 56.520150
Head -13.928179 15.649594 -30.775455
LeftShoulder -20.787462 -18.922019 15.227678
LeftArm -49.275625 4.080781 -17.295770
LeftForeArm -32.285133 -0.000000 -1.044644
LeftHand -12.804013 -0.000000 13.085293
LeftHandThumb1 -26.253704 0.000000 33.147579
RightShoulder 4.615420 8.470884 -37.575126
RightArm 1.428594 32.826706 -0.728245
RightForeArm -33.345623 0.000000 8.356349
RightHand -5.103015 -0.000000 -2.584560
RightHandThumb1 -24.326973 -0.000000 -32.862282
LeftUpLeg -32.386431 -9.339314 -13.866935
LeftLeg -8.688467 -0.000000 0.000000
LeftFoot -26.736633 14.773340 -24.584028
LeftToeBase 23.437858 -0.000000 -0.000000
RightUpLeg -93.907491 -35.610625 5.924568
RightLeg -4.860076 -0.000000 0.000000
RightFoot 19.056247 -34.118418 -5.701225
RightToeBase 25.978393 -0.000000 -0.000000
658
root 12.837673 31.917849 -19.421802 -148.972706 42.943396 -216.493427
Spine 43.920528 14.935483 56.339823
Head -14.005689 14.985934 -30.480275
LeftShoulder -20.733523 -19.251030 15.191853
LeftArm -49.106793 4.120551 -16.857129
LeftForeArm -32.338759 -0.000000 -0.883828
LeftHand -12.950405 -0.000000 13.548895
LeftHandThumb1 -26.253704 0.000000 33.147579
RightShoulder 4.683163 8.190928 -37.508991
RightArm 1.531640 32.941627 -0.702794
RightForeArm -32.842882 -0.000000 8.238118
RightHand -4.635581 -0.000000 -1.975954
RightHandThumb1 -24.326973 -0.000000 -32.862282
LeftUpLeg -32.285132 -9.332395 -13.782768
LeftLeg -8.694446 -0.000000 0.000000
LeftFoot -26.804628 14.862252 -24.582061
LeftToeBase 23.447675 -0.000000 -0.000000
RightUpLeg -93.638321 -35.574488 5.822082
RightLeg -5.005806 -0.000000 0.000000
RightFoot 19.116871 -34.126724 -5.715588
RightToeBase 25.960849 -0.000000 -0.000000
659
root 12.844608 31.917024 -19.425490 -149.017444 42.977816 -216.396850
Spine 43.833821 14.871248 56.109480
Head -14.041765 14.279230 -30.147023
LeftShoulder -20.695644 -19.491935 15.214700
LeftArm -48.968301 4.060598 -16.502434
LeftForeArm -32.649246 -0.000000 -0.652101
LeftHand -12.660397 0.000000 14.292174
LeftHandThumb1 -26.253704 0.000000 33.147579
RightShoulder 4.804383 8.175117 -37.452996
RightArm 1.606323 32.971489 -0.576193
RightForeArm -32.489855 -0.000000 8.164339
RightHand -4.189392 -0.000000 -1.251574
RightHandThumb1 -24.326973 -0.000000 -32.862282
LeftUpLeg -32.190587 -9.316940 -13.695003
LeftLeg -8.685241 -0.000000 0.000000
LeftFoot -26.875701 14.954298 -24.558121
LeftToeBase 23.422288 -0.000000 -0.000000
RightUpLeg -93.384849 -35.525632 5.743904
RightLeg -5.140004 -0.000000 0.000000
RightFoot 19.139865 -34.138322 -5.683774
RightToeBase 25.982664 -0.000000 -0.000000
660
root 12.851881 31.917613 -19.428068 -149.077824 43.006279 -216.287943
Spine 43.733406 14.749170 55.865027
Head -14.090991 13.553422 -29.823385
LeftShoulder -20.631771 -19.722637 15.192024
LeftArm -48.864022 3.961124 -16.053376
LeftForeArm -32.809067 -0.000000 -0.386092
LeftHand -12.610214 0.000000 14.888183
LeftHandThumb1 -26.253704 0.000000 33.147579
RightShoulder 4.966002 8.103713 -37.437073
RightArm 1.683428 32.960442 -0.432058
RightForeArm -32.141718 -0.000000 8.110098
RightHand -3.982705 -0.000000 -0.416103
RightHandThumb1 -24.326973 -0.000000 -32.862282
LeftUpLeg -32.092462 -9.312168 -13.587776
LeftLeg -8.642537 -0.000000 0.000000
LeftFoot -26.968308 15.036794 -24.552497
LeftToeBase 23.462302 -0.000000 -0.000000
RightUpLeg -93.042463 -35.486740 5.568861
RightLeg -5.286454 -0.000000 0.000000
RightFoot 19.206443 -34.201212 -5.681087
RightToeBase 25.993535 -0.000000 -0.000000
661
root 12.859384 31.917765 -19.430132 -149.135695 43.035895 -216.180667
Spine 43.650305 14.682959 55.615594
Head -14.186613 12.779454 -29.481650
LeftShoulder -20.555910 -19.948025 15.185483
LeftArm -48.692864 3.773960 -15.586638
LeftForeArm -33.039065 -0.000000 -0.140367
LeftHand -12.361700 -0.000000 15.401615
LeftHandThumb1 -26.253704 0.000000 33.147579
RightShoulder 5.001818 8.019832 -37.373425
RightArm 1.863462 33.004952 -0.249835
RightForeArm -31.771937 -0.000000 8.042922
RightHand -3.706135 -0.000000 0.147891
RightHandThumb1 -24.326973 -0.000000 -32.862282
LeftUpLeg -32.003144 -9.284845 -13.496134
LeftLeg -8.584794 -0.000000 0.000000
LeftFoot -27.061236 15.091685 -24.528450
LeftToeBase 23.478015 -0.000000 -0.000000
RightUpLeg -92.732492 -35.439058 5.428923
RightLeg -5.421637 -0.000000 0.000000
RightFoot 19.265264 -34.271891 -5.662624
RightToeBase 26.009642 -0.000000 -0.000000
662
root 12.866510 31.918646 -19.430631 -149.193247 43.081486 -216.081922
Spine 43.564553 14.619348 55.329150
Head -14.307750 11.950722 -29.147758
LeftShoulder -20.492976 -20.078657 15.135562
LeftArm -48.444609 3.560464 -15.184729
LeftForeArm -33.400362 0.000000 0.027182
LeftHand -12.406398 0.000000 15.720057
LeftHandThumb1 -26.253704 0.000000 33.147579
RightShoulder 5.234436 8.365737 -37.294573
RightArm 1.608590 32.630578 -0.226114
RightForeArm -31.299595 -0.000000 8.213608
RightHand -3.312872 -0.000000 0.869069
RightHandThumb1 -24.326973 -0.000000 -32.862282
LeftUpLeg -31.923442 -9.228396 -13.428460
LeftLeg -8.521331 -0.000000 0.000000
LeftFoot -27.153344 15.091319 -24.528104
LeftToeBase 23.548710 -0.000000 -0.000000
RightUpLeg -92.429110 -35.376236 5.249946
RightLeg -5.530055 -0.000000 0.000000
RightFoot 19.327382 -34.387373 -5.619670
RightToeBase 26.082592 -0.000000 -0.000000
